<svg xmlns="http://www.w3.org/2000/svg" version="1.0" viewBox="0 0 768 768"><path fill="#366" d="M365.5 129.5c-40.2 5.6-74.7 27.3-97 61-13.3 20-20.4 41-22.5 66.1-.5 6.6-1 28.5-1 48.8v36.8l2.3-.6c1.2-.3 15.6-.6 31.9-.6h29.6l.4-42.8c.4-40 .6-43.2 2.6-50.6 7.2-26 28.7-47 55.2-53.7 3.1-.8 10.5-1.4 17-1.4s13.9.6 17 1.4c26.5 6.7 48 27.7 55.2 53.7 2 7.4 2.2 10.6 2.6 50.6l.4 42.8h29.6c16.3 0 30.7.3 32 .6l2.2.6v-36.8c0-20.3-.5-42.2-1-48.8-2.6-31.3-13.8-58-34.2-81.4-30.1-34.6-77-52.1-122.3-45.7zm2.5 278.8c-16.8 5.7-29 18-34.6 34.7-2.7 8.1-2.6 22.4.3 31.5 3.9 12 12.8 22.9 25.6 31 1.4.9 1.1 3.8-2.4 27.5-4.8 32.9-4.8 34.9-1 39.2l2.9 3.3 21.4.3c11.7.2 23.2.1 25.5-.3 4.7-.7 8.8-4.2 9.6-8.1.2-1.5-1.4-15.9-3.7-32l-4.3-29.4 3.5-2.1c10.4-6.1 19.7-17.7 23.5-29.2 2.7-8.5 2.9-24 .3-31.7-5.8-17.2-19.4-30.4-36.5-35.4-8.2-2.4-22-2.1-30.1.7z"/><path fill="#666" d="M383.8 405.7c.7.3 1.6.2 1.9-.1.4-.3-.2-.6-1.3-.5-1.1 0-1.4.3-.6.6z"/><path fill="#663" d="M380.8 405.7c.7.3 1.6.2 1.9-.1.4-.3-.2-.6-1.3-.5-1.1 0-1.4.3-.6.6zm-28.7 160.9c0 1.1.3 1.4.6.6.3-.7.2-1.6-.1-1.9-.3-.4-.6.2-.5 1.3z"/><path fill="#993" d="M250.8 341.7c.7.3 1.6.2 1.9-.1.4-.3-.2-.6-1.3-.5-1.1 0-1.4.3-.6.6zm265 0c.7.3 1.6.2 1.9-.1.4-.3-.2-.6-1.3-.5-1.1 0-1.4.3-.6.6z"/><path fill="#C90" d="M268.3 341.7c7.5.2 19.9.2 27.5 0 7.5-.1 1.3-.3-13.8-.3-15.1 0-21.3.2-13.7.3zm204 0c7.5.2 19.9.2 27.5 0 7.5-.1 1.3-.3-13.8-.3-15.1 0-21.3.2-13.7.3zM330.2 458c0 1.4.2 1.9.5 1.2.2-.6.2-1.8 0-2.5-.3-.6-.5-.1-.5 1.3zm107 0c0 1.4.2 1.9.5 1.2.2-.6.2-1.8 0-2.5-.3-.6-.5-.1-.5 1.3z"/><path fill="#FC0" d="M276 341.9c-31.8.6-33.8.8-39.2 2.9-11.3 4.6-22.8 15.1-28.3 25.9-5.7 11.5-5.6 7.6-5.3 122.4l.3 105.4 2.2 6c6.4 16.8 21.2 29.9 38.4 34 9.6 2.2 270.2 2.2 279.8 0 17.2-4.1 32-17.2 38.4-34l2.2-6 .3-105.4c.3-115.2.5-110.5-5.5-122.9-3.4-6.9-14.9-18.7-21.9-22.4-11.2-6-7.2-5.8-122.4-6.2-58-.2-120.6-.1-139 .3zm119.2 64.2c9 1.8 19.1 7.5 26.1 14.5 10.7 10.7 16 23.3 15.9 38 0 19.5-10 36.4-27.6 46.9-1.6.9-1.4 3.1 2.4 28.3 5 34 5 34.4.6 38.8l-3.4 3.4h-50.4l-3.4-3.4c-2.6-2.6-3.4-4.3-3.4-6.8 0-1.9 1.8-16.1 4-31.4 3.7-25.7 3.9-28 2.4-28.9-17.7-10.6-27.6-27.4-27.6-46.9-.1-17.1 7.4-32.3 21.3-42.8 12.4-9.4 27.8-12.8 43.1-9.7z"/></svg>